<?xml version="1.0" standalone="no"?><!DOCTYPE svg PUBLIC "-//W3C//DTD SVG 1.1//EN" "http://www.w3.org/Graphics/SVG/1.1/DTD/svg11.dtd"><svg t="1764993568658" class="icon" viewBox="0 0 1024 1024" version="1.1" xmlns="http://www.w3.org/2000/svg" p-id="14242" xmlns:xlink="http://www.w3.org/1999/xlink" width="200" height="200"><path d="M512 1024a512 512 0 1 1 512-512 512 512 0 0 1-512 512m0-960.1024A448.1024 448.1024 0 1 0 960.1024 512 448.9216 448.9216 0 0 0 512 63.8976" fill="#00d959" p-id="14243"></path><path d="M483.9424 696.32a268.9024 268.9024 0 0 1-69.632-11.264 31.3344 31.3344 0 0 1-16.9984-41.984 31.744 31.744 0 0 1 41.984-16.9984 249.0368 249.0368 0 0 0 45.056 6.7584 169.1648 169.1648 0 0 0 83.968-20.48A232.8576 232.8576 0 0 0 655.36 520.8064a612.7616 612.7616 0 0 0 63.8976-190.6688h-21.9136c-111.616 0-189.44 1.2288-247.808 15.36a178.7904 178.7904 0 0 0-76.8 35.84 132.5056 132.5056 0 0 0-40.96 68.1984 175.3088 175.3088 0 0 0 3.072 90.112 102.4 102.4 0 0 0 13.312 29.0816 31.9488 31.9488 0 1 1-53.6576 34.4064 172.2368 172.2368 0 0 1-20.48-45.056 235.1104 235.1104 0 0 1-3.4816-125.952 198.656 198.656 0 0 1 61.44-99.9424 245.76 245.76 0 0 1 102.4-49.152C499.3024 267.264 580.608 266.24 696.32 266.24h28.672a60.0064 60.0064 0 0 1 42.3936 17.408l2.048 2.048a61.44 61.44 0 0 1 12.9024 45.6704v1.024A662.528 662.528 0 0 1 709.632 552.96a295.3216 295.3216 0 0 1-111.0016 114.688 225.28 225.28 0 0 1-114.688 28.672" fill="#00d959" p-id="14244"></path><path d="M316.0064 772.7104h-2.048a31.744 31.744 0 0 1-29.696-33.792 300.4416 300.4416 0 0 1 88.4736-195.584l3.6864-4.096a462.6432 462.6432 0 0 1 108.9536-83.5584 189.0304 189.0304 0 0 1 80.896-24.576 31.9488 31.9488 0 1 1 4.7104 63.8976 135.9872 135.9872 0 0 0-56.32 17.408 458.1376 458.1376 0 0 0-90.7264 68.1984l-3.4816 4.096A241.664 241.664 0 0 0 348.16 743.0144a32.5632 32.5632 0 0 1-31.744 29.696" fill="#00d959" p-id="14245"></path></svg>