<?xml version="1.0" standalone="no"?><!DOCTYPE svg PUBLIC "-//W3C//DTD SVG 1.1//EN" "http://www.w3.org/Graphics/SVG/1.1/DTD/svg11.dtd"><svg t="1765279910956" class="icon" viewBox="0 0 1821 1024" version="1.1" xmlns="http://www.w3.org/2000/svg" p-id="1753" xmlns:xlink="http://www.w3.org/1999/xlink" width="355.6640625" height="200"><path d="M536.266667 368.8h230v57.466667H536.266667z" fill="#8bc4ea" p-id="1754"></path><path d="M536.266667 368.8h57.466666v287.466667h-57.466666z" fill="#8bc4ea" p-id="1755"></path><path d="M536.266667 656.266667v-57.466667h230v57.466667H536.266667z m0-114.933334v-57.466666h201.2V541.333333H536.266667z m455.066666 122L788 460l40.666667-40.666667L1031.866667 622.666667l-40.533334 40.666666z m0 0" fill="#8bc4ea" p-id="1756"></path><path d="M828.666667 663.333333L788 622.666667l203.333333-203.333334L1032 460 828.666667 663.333333z m225.066666 79.2V426.266667h57.466667v316.266666h-57.466667z m0 0" fill="#8bc4ea" p-id="1757"></path><path d="M1053.733333 483.866667v-57.466667h230v57.466667H1053.733333z m0 143.733333v-57.466667h230v57.466667H1053.733333z m0 0" fill="#8bc4ea" p-id="1758"></path><path d="M1226.133333 426.266667h57.466667v201.2h-57.466667z" fill="#8bc4ea" p-id="1759"></path><path d="M619.6 81.333333c-139.066667 1.733333-252.533333 130.8-254.933333 275.866667h-0.8v586.533333h833.733333v-0.133333c138.266667-2.933333 256-122.266667 258.266667-266.533333h0.266666V81.333333H619.6z m778.933333 573.733334h-0.133333c-2.133333 125.066667-107.466667 228.533333-231.066667 231.066666v0.133334H421.333333V377.6h0.666667c2.133333-125.733333 103.733333-237.733333 228.133333-239.2h748.4v516.666667z m0 0" fill="#8bc4ea" p-id="1760"></path></svg>