<?xml version="1.0" standalone="no"?><!DOCTYPE svg PUBLIC "-//W3C//DTD SVG 1.1//EN" "http://www.w3.org/Graphics/SVG/1.1/DTD/svg11.dtd"><svg t="1765290112852" class="icon" viewBox="0 0 1024 1024" version="1.1" xmlns="http://www.w3.org/2000/svg" p-id="4876" xmlns:xlink="http://www.w3.org/1999/xlink" width="200" height="200"><path d="M736 192l144.832 193.088-368.512 460.16-1.216 1.536-1.152 1.6-1.152-1.6-1.216-1.6L143.04 385.28 288 192h448m0-64H288a64 64 0 0 0-51.2 25.6L91.776 347.008a64 64 0 0 0-1.344 74.944l366.976 463.04a64 64 0 0 0 104.896 0l371.2-463.232a64 64 0 0 0-1.152-75.2L787.2 153.6A64 64 0 0 0 736 128z" fill="#8bc4ea" p-id="4877"></path><path d="M128 352h768v64H128z" fill="#8bc4ea" p-id="4878"></path><path d="M479.616 884.416l-219.136-675.2a32 32 0 0 1 24.832-37.888 32 32 0 0 1 37.888 24.768l219.136 675.2a32 32 0 0 1-24.832 37.824 32 32 0 0 1-37.888-24.704z" fill="#8bc4ea" p-id="4879"></path><path d="M542.272 884.416l219.328-675.2a32 32 0 0 0-24.768-37.888 32 32 0 0 0-37.888 24.768l-219.328 675.2a32 32 0 0 0 24.768 37.824 32 32 0 0 0 37.888-24.704z" fill="#8bc4ea" p-id="4880"></path><path d="M495.226 133.604q27.104-17.012 44.116 10.091L675.44 360.52q17.013 27.103-10.09 44.116-27.104 17.012-44.116-10.091L485.136 177.72q-17.013-27.103 10.09-44.116z" fill="#8bc4ea" p-id="4881"></path><path d="M349.008 360.52l136.098-216.825q17.012-27.103 44.116-10.09 27.103 17.012 10.09 44.115L403.214 394.545q-17.012 27.103-44.116 10.09-27.103-17.012-10.09-44.115z" fill="#8bc4ea" p-id="4882"></path></svg>