<?xml version="1.0" standalone="no"?><!DOCTYPE svg PUBLIC "-//W3C//DTD SVG 1.1//EN" "http://www.w3.org/Graphics/SVG/1.1/DTD/svg11.dtd"><svg t="1765290972602" class="icon" viewBox="0 0 1206 1024" version="1.1" xmlns="http://www.w3.org/2000/svg" p-id="12685" xmlns:xlink="http://www.w3.org/1999/xlink" width="235.546875" height="200"><path d="M26.040412 468.658146c-52.055915-130.139786-26.027957-268.955559 69.407886-373.067388 112.787815-104.111829 277.631544-130.139786 407.771331-52.055915 43.379929 26.027957 69.407886 52.055915 104.111829 86.759858 26.027957-34.703943 52.055915-60.7319 95.435843-86.759858 130.139786-78.083872 294.983516-52.055915 407.771331 52.055915 95.435843 104.111829 121.463801 242.927601 69.407886 373.067388-69.407886 182.195701-407.771331 442.475274-572.61506 555.263089-164.843729-112.787815-511.88316-373.067388-581.291046-555.263089zm581.291046 477.179217c138.815772-95.435843 451.15126-347.03943 520.559146-503.207174 34.703943-104.111829 17.351972-216.899644-60.7319-303.659502-86.759858-86.759858-225.57563-104.111829-338.363445-43.379929-60.7319 43.379929-86.759858 86.759858-121.463801 147.491758-43.379929-60.7319-60.7319-104.111829-130.139786-147.491758-112.787815-60.7319-242.927601-43.379929-338.363445 43.379929-78.083872 86.759858-95.435843 199.547672-52.055915 303.659502 60.7319 156.167744 373.067388 407.771331 520.559146 503.207174z" p-id="12686" fill="#8bc4ea"></path><path d="M529.247586 208.378573c8.675986 8.675986 8.675986 17.351972 0 26.027957-8.675986 8.675986-17.351972 8.675986-26.027957 0-164.843729-182.195701-390.419359-43.379929-347.03943 156.167744 0 8.675986 0 26.027957 8.675986 34.703943 43.379929 112.787815 338.363445 347.03943 442.475274 425.123302 104.111829-78.083872 390.419359-312.335487 442.475274-425.123302 8.675986-26.027957 8.675986-52.055915 8.675986-78.083872 0-121.463801-112.787815-234.251616-234.251616-190.871687-8.675986 0-17.351972-8.675986-26.027957-17.351972 0-8.675986 8.675986-17.351972 17.351972-26.027957 147.491758-43.379929 286.30753 86.759858 286.30753 234.251616 0 34.703943-8.675986 60.7319-17.351972 95.435843-78.083872 147.491758-329.687459 347.03943-468.503231 451.15126-8.675986 8.675986-17.351972 8.675986-26.027957 0-112.787815-86.759858-407.771331-329.687459-459.827245-451.15126-8.675986-17.351972-8.675986-34.703943-17.351972-52.055915-43.379929-234.251616 234.251616-390.419359 416.447317-182.195701zm208.223658-52.055915c8.675986-8.675986 26.027957-8.675986 26.027957 0 8.675986 8.675986 8.675986 26.027957 0 26.027957-8.675986 8.675986-26.027957 17.351972-34.703943 26.027957-8.675986 8.675986-17.351972 17.351972-26.027957 26.027957-8.675986 8.675986-17.351972 8.675986-26.027957 8.675986-8.675986-8.675986-8.675986-26.027957 0-26.027957 8.675986-17.351972 17.351972-26.027957 26.027957-34.703943 17.351972-8.675986 26.027957-17.351972 34.703943-26.027957z" p-id="12687" fill="#8bc4ea"></path></svg>