<?xml version="1.0" standalone="no"?><!DOCTYPE svg PUBLIC "-//W3C//DTD SVG 1.1//EN" "http://www.w3.org/Graphics/SVG/1.1/DTD/svg11.dtd"><svg t="1765291223678" class="icon" viewBox="0 0 1024 1024" version="1.1" xmlns="http://www.w3.org/2000/svg" p-id="15005" width="200" height="200" xmlns:xlink="http://www.w3.org/1999/xlink"><path d="M582.656 462.848c-38.912 38.912-102.4 38.912-141.312 0l-35.328-35.328 70.144-70.656-109.568-109.568c-9.728-9.728-25.6-9.728-35.328 0l-211.968 212.48c-9.728 9.728-9.728 25.6 0 35.328L494.08 869.888c9.728 9.728 25.6 9.728 35.328 0l17.92-17.92-53.248-53.248c-9.728-9.728-10.24-25.6-0.512-35.328 9.728-9.728 25.6-10.24 35.328-0.512l0.512 0.512 53.248 53.248 35.328-35.328-53.248-53.248c-9.728-9.728-10.24-25.6-0.512-35.328 9.728-9.728 25.6-10.24 35.328-0.512l0.512 0.512 53.248 53.248 35.328-35.328-53.248-53.248c-10.24-9.216-10.752-25.088-1.024-35.328 9.216-10.24 25.088-10.752 35.328-1.024l1.024 1.024 53.248 53.248 17.92-17.92c9.728-9.728 9.728-25.6 0-35.328L582.656 462.848z m35.328-35.328l159.232 159.232c6.144 6.144 10.752 12.8 14.848 20.48l112.64-112.64c9.728-9.728 9.728-25.6 0-35.328L692.736 247.296c-9.728-9.728-25.6-9.728-35.328 0L476.16 427.52c19.456 19.456 51.2 19.456 70.656 0l53.248-53.248c9.728-9.728 25.6-10.24 35.328-0.512 9.728 9.728 10.24 25.6 0.512 35.328l-0.512 0.512-17.408 17.92z m158.72 265.216L564.736 904.704c-29.184 29.184-76.8 29.184-105.984 0L83.968 529.92c-29.184-29.184-29.184-76.8 0-105.984l211.968-211.968c29.184-29.184 76.8-29.184 105.984 0l109.568 109.568 109.568-109.568c29.184-29.184 76.8-29.184 105.984 0l211.968 211.968c29.184 29.184 29.184 76.8 0 105.984L776.704 692.736z" p-id="15006" fill="#8bc4ea"></path></svg>